<svg id="Capa_1" enable-background="new 0 0 512.159 512.159" height="512" viewBox="0 0 512.159 512.159" width="512" xmlns="http://www.w3.org/2000/svg" xmlns:xlink="http://www.w3.org/1999/xlink"><linearGradient id="SVGID_1_" gradientUnits="userSpaceOnUse" x1="75.144" x2="437.181" y1="437.102" y2="75.064"><stop offset="0" stop-color="#ff4747"/><stop offset="1" stop-color="#fffa78"/></linearGradient><radialGradient id="SVGID_2_" cx="256.162" cy="256.082" gradientUnits="userSpaceOnUse" r="256"><stop offset="0" stop-color="#ff4747" stop-opacity=".6"/><stop offset=".203" stop-color="#ff653b" stop-opacity=".478"/><stop offset=".6414" stop-color="#ffb01c" stop-opacity=".215"/><stop offset="1" stop-color="#fff200" stop-opacity="0"/></radialGradient><radialGradient id="SVGID_3_" cx="-24929.291" cy="-25336.027" gradientTransform="matrix(1 0 0 1.212 25185.291 30854.209)" gradientUnits="userSpaceOnUse" r="317.764"><stop offset=".0056" stop-color="#fffa78" stop-opacity=".8"/><stop offset="1" stop-color="#fffa78" stop-opacity="0"/></radialGradient><linearGradient id="lg1"><stop offset="0" stop-color="#fff200"/><stop offset="1" stop-color="#fff"/></linearGradient><linearGradient id="SVGID_4_" gradientUnits="userSpaceOnUse" x1="74.996" x2="420.377" xlink:href="#lg1" y1="397.78" y2="52.399"/><linearGradient id="SVGID_5_" gradientUnits="userSpaceOnUse" x1="16.911" x2="472.465" xlink:href="#lg1" y1="426.382" y2="-29.172"/><linearGradient id="SVGID_6_" gradientUnits="userSpaceOnUse" x1="24.754" x2="421.588" xlink:href="#lg1" y1="424.459" y2="27.624"/><linearGradient id="SVGID_7_" gradientUnits="userSpaceOnUse" x1="-127.941" x2="369.241" y1="578.363" y2="81.18"><stop offset="0" stop-color="#fffa78"/><stop offset="1" stop-color="#fff"/></linearGradient><linearGradient id="SVGID_8_" gradientUnits="userSpaceOnUse" x1="239.138" x2="368.7" y1="444.348" y2="314.786"><stop offset="0" stop-color="#ff4c4c"/><stop offset=".1935" stop-color="#ff6740"/><stop offset=".606" stop-color="#ffac21"/><stop offset="1" stop-color="#fff200"/></linearGradient><linearGradient id="SVGID_9_" gradientUnits="userSpaceOnUse" x1="256.163" x2="256.163" y1="519.68" y2="454.842"><stop offset="0" stop-color="#ff8c00" stop-opacity="0"/><stop offset=".3962" stop-color="#ff8a01" stop-opacity=".238"/><stop offset=".5717" stop-color="#ff8304" stop-opacity=".343"/><stop offset=".7036" stop-color="#ff760a" stop-opacity=".422"/><stop offset=".8137" stop-color="#ff6413" stop-opacity=".488"/><stop offset=".9091" stop-color="#ff4d1d" stop-opacity=".546"/><stop offset=".9949" stop-color="#ff312a" stop-opacity=".597"/><stop offset="1" stop-color="#ff2f2b" stop-opacity=".6"/></linearGradient><linearGradient id="lg2"><stop offset="0" stop-color="#ffb11d"/><stop offset=".259" stop-color="#ffc030"/><stop offset=".7826" stop-color="#ffe862"/><stop offset="1" stop-color="#fffa78"/></linearGradient><linearGradient id="SVGID_10_" gradientTransform="matrix(-1 0 0 1 511.763 0)" gradientUnits="userSpaceOnUse" x1="329.573" x2="136.915" xlink:href="#lg2" y1="443.335" y2="250.676"/><linearGradient id="SVGID_11_" gradientTransform="matrix(-1 0 0 1 511.763 0)" gradientUnits="userSpaceOnUse" x1="344.212" x2="124.721" xlink:href="#lg2" y1="502.114" y2="282.623"/><linearGradient id="SVGID_12_" gradientUnits="userSpaceOnUse" x1="256.165" x2="256.165" y1="482.805" y2="364.424"><stop offset="0" stop-color="#fff200" stop-opacity="0"/><stop offset=".2571" stop-color="#ffef01" stop-opacity=".154"/><stop offset=".4121" stop-color="#ffe705" stop-opacity=".247"/><stop offset=".54" stop-color="#ffd90b" stop-opacity=".324"/><stop offset=".6532" stop-color="#ffc413" stop-opacity=".392"/><stop offset=".7566" stop-color="#ffaa1e" stop-opacity=".454"/><stop offset=".853" stop-color="#ff8a2c" stop-opacity=".512"/><stop offset=".9421" stop-color="#ff643b" stop-opacity=".565"/><stop offset="1" stop-color="#ff4747" stop-opacity=".6"/></linearGradient><linearGradient id="SVGID_13_" gradientTransform="matrix(-1 0 0 1 511.763 0)" gradientUnits="userSpaceOnUse" x1="390.917" x2="179.209" xlink:href="#lg2" y1="413.887" y2="202.179"/><linearGradient id="SVGID_14_" gradientTransform="matrix(-1 0 0 1 511.763 0)" gradientUnits="userSpaceOnUse" x1="438.815" x2="110.616" xlink:href="#lg2" y1="537.904" y2="209.706"/><linearGradient id="SVGID_15_" gradientTransform="matrix(-1 0 0 1 511.763 0)" gradientUnits="userSpaceOnUse" x1="427.132" x2="147.418" xlink:href="#lg2" y1="552.169" y2="272.456"/><g><circle cx="256.159" cy="256.08" fill="url(#SVGID_1_)" r="256"/><circle cx="256.159" cy="256.08" fill="url(#SVGID_2_)" r="256"/><circle cx="256" cy="256.079" fill="url(#SVGID_3_)" r="256"/><path d="m271.21 47.944c-37.239-.581-67.988 32.333-68.351 70.036-.477 65.268-.616 130.536-.417 195.805 46.049.701 92.098.496 138.147-.615.316-64.573.096-129.145-.661-193.718-.524-37.224-31.481-70.798-68.718-71.508z" fill="url(#SVGID_4_)"/><path d="m241.11 47.935c-37.237.686-68.191 34.25-68.712 71.484-.751 64.588-.97 129.176-.656 193.764 46.049 1.103 92.098 1.301 138.147.593.202-65.258.061-130.517-.421-195.775-.366-37.698-31.119-70.624-68.358-70.066z" fill="url(#SVGID_5_)"/><path d="m218.367 71.54c-.559 80.815-.751 161.63-.575 242.445 25.583.277 51.166.276 76.748-.006.178-80.806-.017-161.612-.584-242.418-25.197-.898-50.393-.905-75.589-.021z" fill="url(#SVGID_6_)"/><path d="m256.159 32.445c-37.106.048-67.889 33.49-68.379 70.978-.735 70.032-.965 140.063-.688 210.095 15.35.301 30.699.501 46.049.6-.091-70.763-.016-141.527.227-212.29.053-12.711 10.262-23.262 22.793-23.258 12.532.003 22.741 10.558 22.795 23.268.249 70.759.327 141.518.233 212.276 15.35-.102 30.699-.304 46.049-.608.279-70.018.048-140.036-.694-210.054-.491-37.478-31.278-70.934-68.385-71.007z" fill="url(#SVGID_7_)"/><path d="m210.526 402.698c.066 9.993.139 19.987.219 29.981.246 25.272 20.61 47.033 45.414 47.036 24.803-.021 45.171-21.791 45.419-47.059.081-9.992.155-19.984.222-29.977-30.425 1.028-60.849 1.034-91.274.019z" fill="url(#SVGID_8_)"/><path d="m210.526 402.698c.066 9.993.139 19.987.219 29.981.246 25.272 20.61 47.033 45.414 47.036 24.803-.021 45.171-21.791 45.419-47.059.081-9.992.155-19.984.222-29.977-30.425 1.028-60.849 1.034-91.274.019z" fill="url(#SVGID_9_)"/><path d="m263.257 342.456c-.024 39.116-.065 78.231-.123 117.347-15.064.113-30.128-.126-45.191-.719-16.619-.674-30.303-15.303-30.52-32.043-.338-28.531-.592-57.062-.761-85.592 25.532.751 51.063 1.087 76.595 1.007z" fill="url(#SVGID_10_)"/><path d="m233.155 428.855c-.112-28.833-.197-57.667-.253-86.5 30.638.299 61.276 0 91.914-.898-.168 28.533-.421 57.067-.758 85.6-.217 16.743-13.899 31.369-30.518 32.037-10.042.392-20.085.627-30.128.706-16.618.132-30.173-14.004-30.257-30.945z" fill="url(#SVGID_11_)"/><path d="m187.229 341.466c.168 28.536.419 57.072.755 85.609.216 16.743 13.898 31.367 30.517 32.031 25.106.973 50.213.966 75.319-.022 16.618-.674 30.303-15.303 30.52-32.043.338-28.531.592-57.062.761-85.592-45.958 1.352-91.915 1.358-137.872.017z" fill="url(#SVGID_12_)"/><path d="m171.354 284.684c20.491.247 40.983.403 61.475.471.022 33.952.083 67.903.184 101.855-15.246-.227-30.492-.681-45.738-1.362-7.251-7.484-14.517-14.966-21.793-22.419-5.79-5.935-9.093-13.719-9.163-21.672-.123-14.025-.215-28.049-.278-42.074-.039-8.273 6.824-14.89 15.313-14.799z" fill="url(#SVGID_13_)"/><path d="m279.219 285.154c-15.464.051-30.927.052-46.391.001-8.488-.024-15.363 6.796-15.347 15.252.021 12.676.052 25.352.091 38.028.026 8.313 1.748 16.57 5.049 24.275 3.47 8.098 6.935 16.2 10.391 24.3 30.492.454 60.985 0 91.477-1.362 7.251-7.484 14.517-14.965 21.793-22.419.76-.779 1.475-1.592 2.147-2.431-22.858-24.277-45.997-49.799-69.21-75.644z" fill="url(#SVGID_14_)"/><path d="m348.43 360.798c4.451-5.554 6.954-12.331 7.015-19.241.123-14.025.215-28.049.278-42.074.039-8.273-6.825-14.889-15.313-14.798-20.397.245-40.793.402-61.19.47.008 40.73 30.387 74.07 69.21 75.643z" fill="url(#SVGID_15_)"/></g></svg>