<?xml version="1.0" encoding="iso-8859-1"?>
<!-- Generator: Adobe Illustrator 19.0.0, SVG Export Plug-In . SVG Version: 6.00 Build 0)  -->
<svg version="1.1" id="Capa_1" xmlns="http://www.w3.org/2000/svg" xmlns:xlink="http://www.w3.org/1999/xlink" x="0px" y="0px"
	 viewBox="0 0 490.667 490.667" fill="#ffffff" style="enable-background:new 0 0 490.667 490.667;" xml:space="preserve">
<g>
	<g>
		<path d="M461.461,192.384c-5.632-1.536-11.563,1.792-13.099,7.488l-0.747,2.795H43.051l-0.768-2.795
			c-1.536-5.696-7.424-9.024-13.077-7.488c-5.696,1.536-9.045,7.403-7.488,13.077l55.424,203.221
			C83.456,431.851,104.597,448,128.597,448h233.472c24,0,45.141-16.149,51.456-39.296l55.424-203.221
			C470.507,199.787,467.157,193.92,461.461,192.384z M141.589,404.928c-0.981,0.277-1.963,0.405-2.923,0.405
			c-4.629,0-8.896-3.051-10.24-7.744L85.76,248.256c-1.621-5.653,1.664-11.563,7.339-13.184c5.611-1.536,11.563,1.664,13.184,7.339
			l42.667,149.333C150.549,397.397,147.264,403.307,141.589,404.928z M193.515,405.227c-0.512,0.085-1.024,0.107-1.515,0.107
			c-5.227,0-9.792-3.84-10.56-9.152l-21.333-149.333c-0.832-5.824,3.221-11.243,9.045-12.075c5.824-0.896,11.243,3.2,12.075,9.045
			l21.333,149.333C203.392,398.997,199.339,404.395,193.515,405.227z M256,394.667c0,5.888-4.779,10.667-10.667,10.667
			s-10.667-4.779-10.667-10.667V245.333c0-5.888,4.779-10.667,10.667-10.667S256,239.445,256,245.333V394.667z M330.56,246.848
			l-21.333,149.333c-0.768,5.333-5.333,9.152-10.56,9.152c-0.491,0-1.003-0.021-1.515-0.107c-5.824-0.832-9.877-6.229-9.045-12.075
			l21.333-149.333c0.832-5.824,6.229-9.856,12.075-9.045C327.339,235.605,331.392,241.003,330.56,246.848z M404.928,248.256
			l-42.667,149.333c-1.344,4.693-5.611,7.744-10.261,7.744c-0.981,0-1.963-0.128-2.944-0.405c-5.675-1.621-8.939-7.531-7.339-13.184
			l42.667-149.333c1.621-5.675,7.595-8.896,13.184-7.339C403.264,236.693,406.549,242.603,404.928,248.256z"/>
	</g>
</g>
<g>
	<g>
		<path d="M480,192h-11.072c-4.651-60.928-48.896-110.827-106.965-124.288c0.299,2.304,0.704,4.565,0.704,6.955
			c0,5.227-0.981,10.155-2.389,14.933c46.997,12.352,82.752,52.736,87.253,102.4H43.136c4.501-49.664,40.256-90.069,87.253-102.4
			C128.981,84.821,128,79.893,128,74.667c0-2.389,0.405-4.651,0.704-6.955C70.656,81.173,26.389,131.072,21.739,192H10.667
			C4.779,192,0,196.779,0,202.667s4.779,10.667,10.667,10.667H480c5.888,0,10.667-4.779,10.667-10.667S485.888,192,480,192z"/>
	</g>
</g>
<g>
	<g>
		<path d="M339.499,64.427c-2.923-0.192-5.845-0.427-8.832-0.427C324.779,64,320,68.779,320,74.667s4.779,10.667,10.667,10.667
			c2.88,0,5.611,0.597,8.448,0.811c1.387-3.584,2.219-7.424,2.219-11.477C341.333,71.061,340.608,67.669,339.499,64.427z"/>
	</g>
</g>
<g>
	<g>
		<path d="M160,64c-2.987,0-5.909,0.235-8.832,0.427c-1.109,3.243-1.835,6.635-1.835,10.24c0,4.053,0.832,7.893,2.219,11.477
			c2.837-0.213,5.568-0.811,8.448-0.811c5.888,0,10.667-4.779,10.667-10.667S165.888,64,160,64z"/>
	</g>
</g>
<g>
	<g>
		<path d="M309.333,42.667h-128c-17.643,0-32,14.357-32,32c0,17.643,14.357,32,32,32h128c17.643,0,32-14.357,32-32
			C341.333,57.024,326.976,42.667,309.333,42.667z M309.333,85.333h-128c-5.888,0-10.667-4.779-10.667-10.667S175.445,64,181.333,64
			h128C315.221,64,320,68.779,320,74.667S315.221,85.333,309.333,85.333z"/>
	</g>
</g>
<g>
</g>
<g>
</g>
<g>
</g>
<g>
</g>
<g>
</g>
<g>
</g>
<g>
</g>
<g>
</g>
<g>
</g>
<g>
</g>
<g>
</g>
<g>
</g>
<g>
</g>
<g>
</g>
<g>
</g>
</svg>
